<svg id="Capa_1" enable-background="new 0 0 512 512" height="512" viewBox="0 0 512 512" width="512" xmlns="http://www.w3.org/2000/svg"><g><g><g><g><g><g><g><circle cx="256" cy="256" fill="#a7d80e" r="256"/></g></g></g></g></g></g><path d="m512 256c0-2.162-.027-4.318-.08-6.467l-135.462-135.461-255.625 309.249 83.453 83.454c16.703 3.425 33.998 5.225 51.714 5.225 141.385 0 256-114.615 256-256z" fill="#90ba0c"/><g><path d="m256 60c-89.046 0-161.232 72.186-161.232 161.232 0 32.438 9.58 62.639 26.065 87.928v114.161l81.295-50.078c16.846 5.97 34.979 9.22 53.872 9.22 89.046 0 161.232-72.186 161.232-161.232 0-89.045-72.186-161.231-161.232-161.231z" fill="#fff"/></g><g><path d="m256 60c-.052 0-.104.002-.156.002v322.46c.052 0 .104.001.156.001 89.046 0 161.232-72.186 161.232-161.231 0-89.046-72.186-161.232-161.232-161.232z" fill="#e9edf5"/></g><g><path d="m124.055 225.942c0-28.693 21.926-46.694 48.86-46.694 20.166 0 32.347 10.692 38.573 21.926l-19.49 10.151c-3.384-5.955-10.286-11.504-19.083-11.504-14.753 0-25.174 11.369-25.174 26.122 0 14.752 10.421 26.122 25.174 26.122 6.632 0 13.399-2.707 16.648-5.414v-7.038h-20.302v-20.437h43.581v35.867c-9.745 10.692-22.874 17.595-39.927 17.595-26.934-.002-48.86-18.003-48.86-46.696z" fill="#636978"/><path d="m221.904 225.942c0-27.475 20.708-46.694 48.318-46.694s48.183 19.219 48.183 46.694-20.573 46.694-48.183 46.694-48.318-19.219-48.318-46.694zm72.816 0c0-14.753-9.61-26.122-24.497-26.122-15.023 0-24.633 11.369-24.633 26.122 0 14.617 9.609 26.122 24.633 26.122 14.887 0 24.497-11.504 24.497-26.122z" fill="#636978"/><g fill="#414952"><path d="m270.222 179.248c-5.053 0-9.872.65-14.378 1.87v23.065c3.887-2.769 8.753-4.363 14.378-4.363 14.888 0 24.497 11.369 24.497 26.122 0 14.617-9.61 26.122-24.497 26.122-5.625 0-10.491-1.613-14.378-4.398v23.101c4.506 1.22 9.325 1.87 14.378 1.87 27.61 0 48.183-19.219 48.183-46.694s-20.572-46.695-48.183-46.695z"/><path d="m327.602 259.914c0-6.903 5.685-12.723 12.587-12.723 6.903 0 12.723 5.82 12.723 12.723 0 6.767-5.82 12.587-12.723 12.587-6.902 0-12.587-5.82-12.587-12.587zm3.383-20.437-3.248-58.74h24.903l-3.113 58.74z"/><path d="m363.872 259.914c0-6.903 5.685-12.723 12.587-12.723 6.903 0 12.723 5.82 12.723 12.723 0 6.767-5.82 12.587-12.723 12.587s-12.587-5.82-12.587-12.587zm3.383-20.437-3.248-58.74h24.903l-3.113 58.74z"/></g></g></g></svg>